# xmcd
#
# Track frame offsets: 
#        150
#        20637
#        40257
#        56960
#        68077
#        82104
#        98275
#        116122
#        131007
#        149617
#
# Disc length: 2205 seconds
#
# Revision: 3
# Processed by: cddbd v1.4PL0 Copyright (c) Steve Scherf et al.
# Submitted via: ExactAudioCopy v0.90b3
#
DISCID=91089b0a
DTITLE=Waylon Jennings - Hangin' Tough
DYEAR=1900
DGENRE=Country
TTITLE0=Baker Street
TTITLE1=I Can't Help The Way I Don't Feel About You
TTITLE2=Rose In Paradise
TTITLE3=Crying Don't Even Come Close
TTITLE4=Chevy Van
TTITLE5=Fallin' Out
TTITLE6=Deep In The West
TTITLE7=Between Fathers And Sons
TTITLE8=The Crown Prince
TTITLE9=Defying Gravity (Executioner's Song)
EXTD=
EXTT0=
EXTT1=
EXTT2=
EXTT3=
EXTT4=
EXTT5=
EXTT6=
EXTT7=
EXTT8=
EXTT9=
PLAYORDER=
